# xmcd
#
# Track frame offsets: 
#        150
#        19904
#        38505
#        62693
#        79634
#        94611
#        112207
#        134095
#        148720
#        169081
#        184483
#        206399
#        224249
#        242856
#
# Disc length: 3397 seconds
#
# Revision: 1
# Processed by: cddbd v1.5.2PL0 Copyright (c) Steve Scherf et al.
# Submitted via: ExactAudioCopy v0.95b3
#
DISCID=d50d430e
DTITLE=Lovisa - That Girl!
DYEAR=2006
DGENRE=Jazz
TTITLE0=I Fall In Love Too Easily
TTITLE1=Skylark
TTITLE2=Some Other Time
TTITLE3=The Look Of Love
TTITLE4=Now At Last
TTITLE5=Time Is A Healer
TTITLE6=When I Fall In Love
TTITLE7=I'm All Smiles
TTITLE8=He Was Too Good To Me
TTITLE9=My Romance
TTITLE10=My One And Only Love
TTITLE11=Line Them Up
TTITLE12=There Was A Room
TTITLE13=That Girl
EXTD=
EXTT0=
EXTT1=
EXTT2=
EXTT3=
EXTT4=
EXTT5=
EXTT6=
EXTT7=
EXTT8=
EXTT9=
EXTT10=
EXTT11=
EXTT12=
EXTT13=
PLAYORDER=
